<svg version="1.2" xmlns="http://www.w3.org/2000/svg" viewBox="0 0 32 33" width="32" height="33">
	<title>svgexport-1-svg</title>
	<style>
		.s0 { fill: #8c4130 } 
		.s1 { fill: #ffffff } 
	</style>
	<path id="Layer" fill-rule="evenodd" class="s0" d="m1.3 18.9c-0.6-1.2-0.2-2.2 0.1-3.2 0.3-0.9 0.6-1.7 0.4-2.7-0.1-0.4 0-0.9-0.1-1.3-0.1-1 0.3-1.7 1-2.3q1.8-1.5 2.6-3.7c0.4-1.2 1.3-1.6 2.4-1.9 1.2-0.3 2.3-0.8 3.2-1.7 1-0.9 2.2-1.4 3.6-0.9 1.1 0.3 2.2 0.4 3.3 0 1.5-0.5 2.8-0.1 3.9 1 1.1 1 2.4 1.4 3.8 1.8 0.9 0.3 1.5 0.9 1.8 1.7 0.5 1.2 1 2.4 2 3.2 0.5 0.5 1 1 1.4 1.4 0.1 0.1 0.1 0.3 0.2 0.4 0 1 0.1 1.9 0 2.8-0.2 1.2 0.3 2.2 0.6 3.3 0.1 0.8 0.1 1.6-0.4 2.3q-0.5 0.8-1 1.8c-0.2 0.3-0.3 0.6-0.3 0.9-0.2 0.6-0.2 1.2-0.4 1.8-0.2 1.1-0.8 1.9-1.8 2.3-1.4 0.6-2.4 1.8-3.3 3-0.5 0.7-1.3 1-2.1 1.1-1.6 0-3.1 0.3-4.5 1.1-0.9 0.5-1.9 0.5-2.9-0.1-1.4-0.7-2.9-1.1-4.5-1-1 0-1.8-0.6-2.4-1.5-0.8-1.1-1.8-2.1-3.1-2.7-1.1-0.6-1.6-1.6-1.8-2.8-0.1-1.6-0.9-2.8-1.7-4.1zm27.4-8.6c0 0 0-0.1-0.1-0.1-1.2-1.2-2-2.6-2.6-4.2-0.2-0.5-0.7-0.8-1.2-0.9-1.7-0.4-3.1-1.1-4.4-2.3q-0.6-0.6-1.6-0.4c-1.6 0.4-3.2 0.5-4.9 0-0.8-0.2-1.4 0.1-2 0.6-1.1 1-2.4 1.7-3.9 2-0.8 0.2-1.4 0.7-1.6 1.5-0.5 1.4-1.4 2.7-2.6 3.7-0.6 0.6-0.9 1.2-0.7 2.1 0.2 1.5 0 3-0.6 4.4-0.3 0.7-0.2 1.3 0.2 1.8 0.9 1.4 1.5 2.8 1.7 4.5q0 1 1 1.6c1.3 0.7 2.6 1.5 3.4 2.9 0.6 1 1.5 1.3 2.6 1.3 0.8 0 1.6 0.1 2.3 0.3 0.6 0.2 1.2 0.5 1.8 0.8 0.6 0.2 1.1 0.2 1.6 0 1.5-0.8 2.9-1.3 4.5-1.2 0.7 0.1 1.4-0.1 1.8-0.7 1-1.6 2.4-2.6 3.9-3.6 0.4-0.2 0.7-0.6 0.8-1 0.3-1.7 0.7-3.3 1.7-4.7 0.5-0.7 0.5-1.3 0.2-2.1-0.5-1.4-0.8-2.8-0.5-4.4 0.1-0.7-0.1-1.4-0.8-1.9z"/>
	<path id="Layer" class="s1" d="m28.8 10.3c0.6 0.5 0.8 1.2 0.7 1.9-0.3 1.6 0 3 0.5 4.4 0.3 0.8 0.3 1.4-0.2 2.1-1 1.4-1.4 3-1.7 4.7-0.1 0.4-0.4 0.8-0.8 1-1.5 1-2.9 2-3.9 3.6-0.4 0.6-1.1 0.8-1.8 0.7-1.6-0.1-3 0.4-4.5 1.2-0.5 0.2-1 0.2-1.6 0-0.6-0.3-1.2-0.6-1.8-0.8-0.7-0.2-1.5-0.3-2.3-0.3-1.1 0-2-0.3-2.6-1.3-0.8-1.4-2.1-2.2-3.4-2.9q-1-0.6-1-1.6c-0.2-1.7-0.8-3.1-1.7-4.5-0.4-0.5-0.5-1.1-0.2-1.8 0.6-1.4 0.8-2.9 0.6-4.4-0.2-0.9 0.1-1.5 0.7-2.1 1.2-1 2.1-2.3 2.6-3.7 0.2-0.8 0.8-1.3 1.6-1.5 1.5-0.3 2.8-1 3.9-2 0.6-0.5 1.2-0.8 2-0.6 1.7 0.5 3.3 0.4 4.9 0q1-0.2 1.6 0.4c1.3 1.2 2.7 1.9 4.4 2.3 0.5 0.1 1 0.4 1.2 0.9 0.6 1.6 1.4 3 2.6 4.2q-0.1 0.1-0.2 0.1c-1.2-1-2-2.2-2.5-3.6-0.2-0.7-0.7-1.2-1.4-1.3-1.7-0.4-3.1-1.2-4.3-2.3q-0.6-0.6-1.4-0.4c-1.7 0.5-3.4 0.5-5.1 0q-0.8-0.2-1.3 0.4c-1.3 1.1-2.8 1.9-4.5 2.3-0.6 0.2-1 0.6-1.2 1.1-0.5 1.2-0.9 2.3-1.9 3.1q-0.6 0.6-1.1 1.2c-0.2 0.2-0.3 0.5-0.3 0.8 0 0.8 0.2 1.6 0 2.4-0.1 1.1-0.5 2.1-0.7 3.2 0 0.3 0 0.7 0.2 1 0.4 1 1 1.9 1.4 3 0.3 0.6 0.3 1.4 0.5 2.2 0.1 0.3 0.3 0.6 0.6 0.8 0.5 0.4 1.2 0.6 1.7 1.1 0.8 0.7 1.6 1.6 2.3 2.4 0.3 0.4 0.6 0.6 1.1 0.6 1.8 0 3.5 0.4 5 1.2q0.8 0.4 1.5 0c1.5-0.8 3.1-1.2 4.9-1.2 0.6 0.1 1-0.2 1.4-0.7q1.3-2.1 3.5-3.2c0.7-0.3 1-0.8 1.1-1.5 0.1-1.6 0.7-3.1 1.6-4.4 0.5-0.5 0.5-1.1 0.2-1.7-0.6-1.5-0.7-3.1-0.5-4.7 0-0.6-0.1-1.1-0.5-1.6q0.1-0.1 0.1-0.2z"/>
	<path id="Layer" fill-rule="evenodd" class="s0" d="m28.7 10.5c0.4 0.5 0.5 1 0.5 1.6-0.2 1.6-0.1 3.2 0.5 4.7 0.3 0.6 0.3 1.2-0.2 1.7-0.9 1.3-1.5 2.8-1.6 4.4-0.1 0.7-0.4 1.2-1.1 1.5q-2.2 1.1-3.5 3.2c-0.4 0.5-0.8 0.8-1.4 0.7-1.8 0-3.4 0.4-4.9 1.2q-0.7 0.4-1.5 0c-1.5-0.8-3.2-1.2-5-1.2-0.5 0-0.8-0.2-1.1-0.6-0.7-0.8-1.5-1.7-2.3-2.4-0.5-0.5-1.2-0.7-1.7-1.1-0.3-0.2-0.5-0.5-0.6-0.8-0.2-0.8-0.2-1.6-0.5-2.2-0.4-1.1-1-2-1.4-3-0.2-0.3-0.2-0.7-0.2-1 0.2-1.1 0.6-2.1 0.7-3.2 0.2-0.8 0-1.6 0-2.4 0-0.3 0.1-0.6 0.3-0.8q0.5-0.6 1.1-1.2c1-0.8 1.4-1.9 1.9-3.1 0.2-0.5 0.6-0.9 1.2-1.1 1.7-0.4 3.2-1.2 4.5-2.3q0.5-0.6 1.3-0.4c1.7 0.5 3.4 0.5 5.1 0q0.8-0.2 1.4 0.4c1.2 1.1 2.6 1.9 4.3 2.3 0.7 0.1 1.2 0.6 1.4 1.3 0.5 1.4 1.3 2.6 2.5 3.6 0.2 0.1 0.2 0.2 0.3 0.2zm-9.9 4.8q-0.8 2.3-1.6 4.6c-0.2 0.4-0.4 0.5-0.8 0.4-0.6-0.1-1.3-0.2-1.9-0.2-0.4 0-0.8 0.3-1 0.6-0.1 0.2 0.1 0.8 0.3 1 0.7 1 2 1.1 3.1 0.2 0.3-0.3 0.6-0.3 1-0.1 1.1 0.4 2.3 0.9 3.5 1.2 1.3 0.3 2-0.3 2.5-1.6-2.1 0.7-3.9-0.3-5.8-0.7 0.7-1.7 1.4-3.3 2-4.9 0.1-0.5 0.3-0.7 0.8-0.7 1.9-0.1 3.5-1.5 3.8-3.4 0.2-0.7 0.1-1.5-0.6-1.9-0.8-0.6-1.7-0.6-2.4 0-0.4 0.3-0.8 0.7-1.1 1.2-0.5 1-1 2.1-1.5 3.2-0.8-0.5-1-1.2-0.6-2.6-0.6 0.1-1 0.4-1.2 1-0.2 0.6-0.1 1.1 0.4 1.5 0.2 0.3 0.6 0.4 0.9 0.6 0.1 0.2 0.1 0.4 0.2 0.6zm-6.2-3.4c0.1-0.1 0.2-0.3 0.2-0.5 0.1-0.5 0.4-0.8 1-0.6 0.5 0.1 1 0.1 1.6 0.2 0.8 0 1.8-0.6 2.1-1.3-1.1 0-2.1-0.1-3.2-0.1-1-0.1-2.2-0.1-3.2 0.1-1.3 0.1-2.4 0.6-3 1.7-0.6 1-0.3 2.4 1 2.5-0.8-3.1 1-3.5 2.9-3.2-0.4 1.1-0.9 2.2-1.3 3.3-0.3 0.8-0.5 1.2-1.4 1.3-1 0-1.4 0.5-1.5 1.2 0.7 0 1.3-0.1 2-0.1-0.4 1-0.8 2-1.1 2.9-0.2 0.8-0.3 1.5-0.4 2.2-0.1 1.1 0.3 1.5 1.4 1.5q0 0 0-0.1c0.1-2.1 0.9-4.2 1.4-6.2 0.1-0.4 0.3-0.5 0.6-0.5 0.6 0 1.2 0 1.8-0.1 0.4-0.1 0.8-0.3 1.2-0.4q0-0.2-0.1-0.3c-1-0.1-2-0.2-3-0.3 0.3-1.1 0.7-2.1 1-3.2z"/>
	<path id="Layer" class="s1" d="m28.7 10.5q-0.1 0-0.2-0.1 0-0.1 0.1-0.2 0.1 0 0.2 0.1 0 0.1-0.1 0.2z"/>
	<path id="Layer" fill-rule="evenodd" class="s1" d="m18.8 15.2c-0.1-0.3-0.1-0.5-0.2-0.6-0.3-0.2-0.7-0.3-0.9-0.6-0.5-0.4-0.6-1-0.4-1.6 0.2-0.5 0.6-0.9 1.2-0.9-0.4 1.4-0.2 2.1 0.6 2.6 0.5-1.1 1-2.2 1.5-3.2 0.3-0.5 0.7-0.9 1.1-1.2 0.7-0.6 1.6-0.6 2.4-0.1 0.7 0.5 0.8 1.3 0.6 2-0.3 1.9-1.9 3.3-3.8 3.4-0.5 0-0.7 0.2-0.8 0.6-0.6 1.7-1.3 3.3-2 5 1.9 0.4 3.7 1.4 5.8 0.7-0.5 1.3-1.2 1.9-2.5 1.6-1.2-0.3-2.4-0.8-3.5-1.2-0.4-0.2-0.7-0.2-1 0.1-1.1 0.8-2.4 0.8-3.1-0.2-0.2-0.3-0.4-0.8-0.3-1.1 0.2-0.3 0.6-0.5 1-0.5 0.6-0.1 1.3 0 1.9 0.2 0.4 0.1 0.6 0 0.8-0.5q0.8-2.2 1.6-4.5zm4.7-3.7c0-0.2 0.1-0.4 0.1-0.5-0.1-0.4-0.3-0.7-0.4-1-0.3 0.1-0.7 0.2-0.9 0.4-1 1.2-1.3 2.6-1.8 4 1.3-0.1 2.4-1.2 3-2.9zm-8.5 10.2c0.5 0.1 1-0.1 1.4-0.7-0.6-0.1-1.1-0.3-1.6-0.3-0.2-0.1-0.5 0.2-0.7 0.3q0.2 0.3 0.5 0.6c0 0.1 0.2 0.1 0.4 0.1z"/>
	<path id="Layer" class="s1" d="m12.6 11.9c-0.3 1-0.7 2-1 3.1 1 0.1 2 0.2 3 0.3q0.1 0.1 0.1 0.2c-0.4 0.2-0.8 0.4-1.2 0.5-0.6 0.1-1.2 0.1-1.8 0.1-0.3 0-0.5 0.1-0.6 0.4-0.5 2.1-1.3 4.1-1.4 6.3q0 0 0 0.1c-1.1 0-1.5-0.5-1.4-1.5 0.1-0.7 0.2-1.5 0.4-2.2 0.3-1 0.7-1.9 1.1-3-0.7 0.1-1.3 0.1-2 0.2 0.1-0.8 0.5-1.2 1.5-1.3 0.9 0 1.1-0.5 1.4-1.2 0.4-1.1 0.9-2.2 1.3-3.3-1.9-0.3-3.7 0-2.9 3.1-1.3 0-1.6-1.4-1-2.4 0.6-1.1 1.7-1.6 3-1.8 1-0.1 2.2-0.1 3.2-0.1 1.1 0 2.1 0.1 3.2 0.2-0.3 0.7-1.3 1.3-2.1 1.2-0.6 0-1.1 0-1.6-0.2-0.6-0.1-0.9 0.1-1 0.7 0 0.2-0.1 0.3-0.2 0.6z"/>
	<path id="Layer" class="s0" d="m23.4 11.6c-0.5 1.6-1.6 2.7-2.9 2.8 0.5-1.4 0.8-2.8 1.8-4 0.2-0.2 0.6-0.3 0.9-0.4 0.1 0.3 0.3 0.6 0.4 1 0 0.1-0.1 0.3-0.2 0.6z"/>
	<path id="Layer" class="s0" d="m14.9 21.7c-0.1 0-0.3 0-0.3-0.1q-0.3-0.3-0.5-0.6c0.2-0.1 0.5-0.4 0.7-0.3 0.5 0 1 0.2 1.6 0.3-0.4 0.6-0.9 0.8-1.5 0.7z"/>
</svg>